<?xml version="1.0" encoding="UTF-8" ?>
<!DOCTYPE svg PUBLIC "-//W3C//DTD SVG 1.1//EN" "http://www.w3.org/Graphics/SVG/1.1/DTD/svg11.dtd">
<svg width="225pt" height="225pt" viewBox="0 0 225 225" version="1.1" xmlns="http://www.w3.org/2000/svg">
<g id="#5181b8ff">
<path fill="#5181b8" opacity="1.00" d=" M 70.39 20.43 C 97.27 20.02 124.16 20.37 151.04 20.26 C 164.07 20.98 178.02 22.12 188.91 30.05 C 192.10 33.27 195.89 36.17 197.65 40.49 C 201.98 48.59 203.75 57.83 203.69 66.96 C 203.51 97.98 203.73 129.00 203.73 160.02 C 203.46 169.97 200.90 179.98 195.42 188.35 C 193.20 190.83 190.83 193.20 188.36 195.42 C 178.02 202.40 165.22 204.21 152.98 204.15 C 125.66 204.17 98.34 204.18 71.02 204.13 C 59.11 204.13 46.70 202.21 36.65 195.42 C 34.17 193.20 31.80 190.83 29.58 188.36 C 22.07 177.11 20.72 163.19 20.77 150.00 C 20.96 121.66 20.38 93.30 21.23 64.96 C 21.45 55.23 24.07 45.56 29.15 37.23 C 31.21 34.61 33.71 32.37 36.09 30.05 C 45.96 22.81 58.52 21.28 70.39 20.43 M 53.51 78.41 C 49.04 79.32 50.48 84.75 51.20 87.91 C 55.65 102.91 63.75 116.55 72.80 129.20 C 82.23 141.99 96.66 152.24 112.98 152.77 C 116.52 152.67 121.32 152.90 123.30 149.31 C 124.31 143.23 123.01 136.99 124.08 130.89 C 126.45 130.09 128.96 130.65 131.03 131.98 C 137.72 136.10 142.78 142.24 148.08 147.93 C 150.23 150.15 152.68 152.73 156.03 152.70 C 160.96 152.77 165.92 152.88 170.85 152.63 C 173.54 152.62 176.18 149.92 175.07 147.18 C 173.24 141.55 169.05 137.14 165.35 132.66 C 161.75 128.31 157.13 124.88 153.75 120.35 C 151.53 117.41 154.39 114.41 156.00 112.02 C 161.73 103.57 167.55 95.06 171.69 85.69 C 172.55 83.58 173.71 80.27 171.08 78.91 C 167.27 77.40 163.00 78.31 159.00 78.05 C 155.37 78.16 150.29 77.42 148.39 81.40 C 143.24 92.57 137.66 104.06 128.51 112.54 C 127.33 113.95 123.87 114.52 123.82 111.99 C 123.36 102.35 123.87 92.68 123.62 83.03 C 123.71 80.80 122.47 78.15 119.91 78.21 C 112.61 77.95 105.29 78.05 98.00 78.15 C 95.19 77.84 93.24 81.05 94.65 83.42 C 96.78 86.69 99.57 89.92 99.55 94.08 C 99.64 102.30 99.56 110.52 99.58 118.75 C 96.42 121.09 93.65 117.46 91.74 115.28 C 84.82 106.53 79.93 96.32 76.15 85.87 C 75.04 82.73 73.56 78.78 69.76 78.25 C 64.37 77.98 58.89 77.79 53.51 78.41 Z" />
</g>
<g id="#ffffffff">
<path fill="#ffffff" opacity="1.00" d=" M 53.51 78.41 C 58.89 77.79 64.37 77.98 69.76 78.25 C 73.56 78.78 75.04 82.73 76.15 85.87 C 79.93 96.32 84.82 106.53 91.74 115.28 C 93.65 117.46 96.42 121.09 99.58 118.75 C 99.56 110.52 99.64 102.30 99.55 94.08 C 99.57 89.92 96.78 86.69 94.65 83.42 C 93.24 81.05 95.19 77.84 98.00 78.15 C 105.29 78.05 112.61 77.95 119.91 78.21 C 122.47 78.15 123.71 80.80 123.62 83.03 C 123.87 92.68 123.36 102.35 123.82 111.99 C 123.87 114.52 127.33 113.95 128.51 112.54 C 137.66 104.06 143.24 92.57 148.39 81.40 C 150.29 77.42 155.37 78.16 159.00 78.05 C 163.00 78.31 167.27 77.40 171.08 78.91 C 173.71 80.27 172.55 83.58 171.69 85.69 C 167.55 95.06 161.73 103.57 156.00 112.02 C 154.39 114.41 151.53 117.41 153.75 120.35 C 157.13 124.88 161.75 128.31 165.35 132.66 C 169.05 137.14 173.24 141.55 175.07 147.18 C 176.18 149.92 173.54 152.62 170.85 152.63 C 165.92 152.88 160.96 152.77 156.03 152.70 C 152.68 152.73 150.23 150.15 148.08 147.93 C 142.78 142.24 137.72 136.10 131.03 131.98 C 128.96 130.65 126.45 130.09 124.08 130.89 C 123.01 136.99 124.31 143.23 123.30 149.31 C 121.32 152.90 116.52 152.67 112.98 152.77 C 96.66 152.24 82.23 141.99 72.80 129.20 C 63.75 116.55 55.65 102.91 51.20 87.91 C 50.48 84.75 49.04 79.32 53.51 78.41 Z" />
</g>
</svg>
